<svg class="icon" viewBox="0 0 1024 1024" xmlns="http://www.w3.org/2000/svg" width="16" height="16"><path d="M682.667 128H341.333A213.333 213.333 0 0 0 128 341.333v341.334A213.333 213.333 0 0 0 341.333 896h341.334A213.333 213.333 0 0 0 896 682.667V341.333A213.333 213.333 0 0 0 682.667 128zm138.666 554.667a139.093 139.093 0 0 1-138.666 138.666H341.333a139.093 139.093 0 0 1-138.666-138.666V341.333a139.093 139.093 0 0 1 138.666-138.666h341.334a139.093 139.093 0 0 1 138.666 138.666zm-64-373.334a42.667 42.667 0 1 1-42.666-42.666 42.667 42.667 0 0 1 42.666 42.666zM512 320a192 192 0 1 0 192 192 191.573 191.573 0 0 0-192-192zm0 309.333A117.333 117.333 0 1 1 629.333 512 117.333 117.333 0 0 1 512 629.333z"/></svg>