<svg data-bbox="30.088 34.007 140.009 131.991" viewBox="30.088 34.007 140.009 131.991" height="200" width="200" xmlns="http://www.w3.org/2000/svg" data-type="color" aria-hidden="true" aria-labelledby="svgcid--xtluzs-8y9h6x"><defs><style>path{fill:#fff}</style></defs><g fill="#5DC15D"><path d="M56.236 99.33h-.135l.018-5.881h.115c5.609-.002 15.697-1.389 21.148-10.51 8.103-13.568 8.19-30.487.551-41.563-5.594 5.05-12.977 8.372-20.149 11.598-8.778 3.951-17.07 7.681-19.892 13.804-6.312 13.688 3.884 22.98 10.523 27.3l-3.197 4.934c-13.8-8.981-18.531-21.953-12.655-34.702 3.744-8.119 13.008-12.285 22.815-16.699 7.719-3.474 15.7-7.066 20.63-12.618a2.94 2.94 0 0 1 2.192-.986h.011a2.926 2.926 0 0 1 2.195 1.002C91.58 47.773 92.424 69.2 82.415 85.959 75.484 97.564 63.098 99.328 56.236 99.33z" data-color="1"/><path d="M107.709 165.998c-34.412.01-62.417-28.037-62.427-62.519-.006-18.734 8.267-36.325 22.696-48.263l3.735 4.536C58.64 70.567 51.146 86.504 51.151 103.478c.009 31.24 25.38 56.648 56.556 56.639 31.175-.009 56.531-25.433 56.522-56.673-.009-31.243-25.38-56.651-56.555-56.642a56.61 56.61 0 0 0-14.206 1.808l-1.472-5.691a62.393 62.393 0 0 1 15.676-1.997c34.412-.01 62.415 28.037 62.425 62.521.011 34.482-27.976 62.545-62.388 62.555z" data-color="1"/><path d="m167.165 110.112-8.803.003c-.981 0-1.897-.49-2.442-1.309l-5-7.511-3.083.001-2.074 2.08a2.932 2.932 0 0 1-2.074.862l-8.803.003c-.778 0-1.525-.31-2.075-.861l-13.816-13.837-19.326.006a2.937 2.937 0 0 1-2.935-2.94l-.002-5.881c-.002-8.106 6.578-14.704 14.668-14.707l4.654-.001 5.008-5.021a2.927 2.927 0 0 1 2.074-.862l13.457-.004 5.008-5.021 4.151 4.157-5.867 5.883a2.932 2.932 0 0 1-2.074.862l-13.457.004-5.008 5.021a2.927 2.927 0 0 1-2.074.862l-5.869.002c-4.854.001-8.802 3.96-8.801 8.824l.001 2.94 17.606-.005c.778 0 1.525.31 2.075.861L136.1 98.36l6.373-.002 2.074-2.08a2.932 2.932 0 0 1 2.074-.862l5.869-.002c.981 0 1.897.49 2.442 1.309l5 7.511 7.233-.002v5.88z" data-color="1"/><path d="m123.16 145.41-8.803.003a2.937 2.937 0 0 1-2.935-2.94l-.006-19.366-4.151-4.157-10.522.003a2.937 2.937 0 0 1-2.935-2.94l-.003-8.821c0-.781.309-1.528.859-2.079l8.801-8.824a2.932 2.932 0 0 1 2.074-.862l14.672-.004c.778 0 1.525.31 2.075.861l14.676 14.698c.55.551.86 1.298.86 2.079l.005 17.643c0 .781-.309 1.528-.859 2.079l-11.734 11.765a2.926 2.926 0 0 1-2.074.862zm-5.87-5.879 4.654-.001 10.015-10.042-.004-15.208-12.956-12.976-12.242.004-7.082 7.101.001 4.663 8.803-.003c.778 0 1.525.31 2.075.861l5.87 5.879c.55.551.86 1.298.86 2.079l.006 17.643z" data-color="1"/></g></svg>