<?xml version="1.0" standalone="no"?><!DOCTYPE svg PUBLIC "-//W3C//DTD SVG 1.1//EN" "http://www.w3.org/Graphics/SVG/1.1/DTD/svg11.dtd"><svg t="1630286075305" class="icon" viewBox="0 0 1024 1024" version="1.1" xmlns="http://www.w3.org/2000/svg" p-id="7811" xmlns:xlink="http://www.w3.org/1999/xlink" width="200" height="200"><defs><style type="text/css"></style></defs><path d="M511 457c17.673 0 32 14.327 32 32v356.746l74.72-74.72 0.377-0.371c12.524-12.125 32.505-12 44.877 0.37 12.497 12.498 12.497 32.759 0 45.256L534.281 944.974l-0.385 0.379c-6.198 5.996-14.22 8.994-22.243 8.994h-0.153c-8.24 0.039-16.493-3.086-22.78-9.373L360.025 816.281c-12.497-12.497-12.497-32.758 0-45.255s32.758-12.497 45.255 0l73.718 73.72L479 489c0-17.673 14.327-32 32-32z m0-389c138.604 0 252.815 104.44 268.23 238.915C880.665 316.589 960 402.03 960 506c0 110.457-89.543 200-200 200H629v-1.327c-12.732-3.856-22-15.682-22-29.673 0-13.99 9.268-25.817 22-29.673V644h122.5c78.46 0 142.214-62.969 143.48-141.127l0.02-2.373v-4c0-78.46-62.969-142.214-141.127-143.48L751.5 353H721v-12c0-115.98-94.02-210-210-210-114.82 0-208.117 92.15-209.972 206.527L301 341v12h-30.5c-78.46 0-142.214 62.969-143.48 141.127L127 496.5v4c0 78.46 62.969 142.214 141.127 143.48l2.373 0.02H391l0.001 0.794C404.75 647.968 415 660.287 415 675s-10.25 27.032-23.999 30.206L391 706H262c-110.457 0-200-89.543-200-200 0-103.97 79.335-189.411 180.77-199.088C258.186 172.44 372.397 68 511 68z" fill="#333333" p-id="7812"></path></svg>