<?xml version="1.0" standalone="no"?><!DOCTYPE svg PUBLIC "-//W3C//DTD SVG 1.1//EN" "http://www.w3.org/Graphics/SVG/1.1/DTD/svg11.dtd"><svg t="1631587529642" class="icon" viewBox="0 0 1024 1024" version="1.1" xmlns="http://www.w3.org/2000/svg" p-id="2496" xmlns:xlink="http://www.w3.org/1999/xlink" width="200" height="200"><defs><style type="text/css"></style></defs><path d="M505 953c-60.5 0-119.1-11.8-174.4-35.2-53.4-22.6-101.3-54.9-142.4-96-41.1-41.1-73.4-89-96-142.4C68.8 624.1 57 565.5 57 505s11.8-119.1 35.2-174.4c22.6-53.4 54.9-101.3 96-142.4 41.1-41.1 89-73.4 142.4-96C385.9 68.8 444.5 57 505 57s119.1 11.8 174.4 35.2c53.4 22.6 101.3 54.9 142.4 96 41.1 41.1 73.4 89 96 142.4C941.2 385.9 953 444.5 953 505s-11.8 119.1-35.2 174.4c-22.6 53.4-54.9 101.3-96 142.4-41.1 41.1-89 73.4-142.4 96C624.1 941.2 565.5 953 505 953z m0-832c-211.7 0-384 172.3-384 384s172.3 384 384 384 384-172.3 384-384-172.3-384-384-384z" fill="#3688FF" p-id="2497"></path><path d="M713 601H441c-17.7 0-32-14.3-32-32V297c0-17.7 14.3-32 32-32s32 14.3 32 32v240h240c17.7 0 32 14.3 32 32s-14.3 32-32 32z" fill="#3688FF" p-id="2498"></path></svg>