<?xml version="1.0" standalone="no"?><!DOCTYPE svg PUBLIC "-//W3C//DTD SVG 1.1//EN" "http://www.w3.org/Graphics/SVG/1.1/DTD/svg11.dtd"><svg t="1630286038895" class="icon" viewBox="0 0 1024 1024" version="1.1" xmlns="http://www.w3.org/2000/svg" p-id="5106" xmlns:xlink="http://www.w3.org/1999/xlink" width="200" height="200"><defs><style type="text/css"></style></defs><path d="M733.6 64.5H290.4c-114.2 0-207.1 92.9-207.1 207.1v480.9c0 114.2 92.9 207.1 207.1 207.1h443.2c114.2 0 207.1-92.9 207.1-207.1V271.6c0-114.2-92.9-207.1-207.1-207.1z m140.7 687.9c0 77.6-63.1 140.7-140.7 140.7H290.4c-77.6 0-140.7-63.1-140.7-140.7V271.6c0-77.6 63.1-140.7 140.7-140.7h443.2c77.6 0 140.7 63.1 140.7 140.7v480.8z" fill="#494949" p-id="5107"></path><path d="M656.4 467.5l-177-112.3c-16.2-10.3-36.7-10.9-53.6-1.7-16.8 9.3-27.3 26.9-27.3 46.1v224.7c0 19.2 10.5 36.9 27.3 46.1 7.9 4.4 16.6 6.5 25.4 6.5 9.8 0 19.6-2.7 28.2-8.2l177.1-112.3c15.3-9.7 24.4-26.3 24.4-44.5 0-18-9.2-34.6-24.5-44.4zM451.7 623.4V400.6L627.3 512 451.7 623.4zM628 512.5s0-0.1 0 0l14.2-22.5-14.2 22.5z" fill="#494949" p-id="5108"></path></svg>