<?xml version="1.0" standalone="no"?><!DOCTYPE svg PUBLIC "-//W3C//DTD SVG 1.1//EN" "http://www.w3.org/Graphics/SVG/1.1/DTD/svg11.dtd"><svg t="1630286191333" class="icon" viewBox="0 0 1024 1024" version="1.1" xmlns="http://www.w3.org/2000/svg" p-id="16119" xmlns:xlink="http://www.w3.org/1999/xlink" width="200" height="200"><defs><style type="text/css"></style></defs><path d="M938.666667 853.632a42.666667 42.666667 0 0 1-42.325334 42.368H127.658667A42.368 42.368 0 0 1 85.333333 853.632V810.666667h768V311.466667l-341.333333 307.2-426.666667-384V170.666667a42.666667 42.666667 0 0 1 42.666667-42.666667h768a42.666667 42.666667 0 0 1 42.666667 42.666667v682.965333zM189.184 213.333333L512 503.893333 834.816 213.333333H189.184zM0 640h341.333333v85.333333H0v-85.333333z m0-213.333333h213.333333v85.333333H0v-85.333333z" p-id="16120"></path></svg>